<mxfile host="Electron" modified="2023-12-25T15:02:01.062Z" agent="Mozilla/5.0 (Windows NT 10.0; Win64; x64) AppleWebKit/537.36 (KHTML, like Gecko) draw.io/22.1.2 Chrome/114.0.5735.289 Electron/25.9.4 Safari/537.36" etag="-KbgrD3Sl_wO5veyTFhu" version="22.1.2" type="device">
  <diagram name="Page-1" id="eg2envfp_vGetGke8aee">
    <mxGraphModel dx="978" dy="598" grid="1" gridSize="10" guides="1" tooltips="1" connect="1" arrows="1" fold="1" page="1" pageScale="1" pageWidth="1169" pageHeight="1654" math="0" shadow="0">
      <root>
        <mxCell id="0" />
        <mxCell id="1" parent="0" />
        <mxCell id="51p05St37-bJCxFVIGwr-9" value="Prendre un&lt;br&gt;chariot" style="strokeWidth=2;html=1;shape=mxgraph.flowchart.terminator;whiteSpace=wrap;" parent="1" vertex="1">
          <mxGeometry x="565" y="120" width="100" height="60" as="geometry" />
        </mxCell>
        <mxCell id="51p05St37-bJCxFVIGwr-10" value="" style="ellipse;html=1;shape=startState;fillColor=#000000;strokeColor=none;" parent="1" vertex="1">
          <mxGeometry x="600" y="70" width="30" height="30" as="geometry" />
        </mxCell>
        <mxCell id="51p05St37-bJCxFVIGwr-12" value="" style="strokeWidth=2;html=1;shape=mxgraph.flowchart.decision;whiteSpace=wrap;" parent="1" vertex="1">
          <mxGeometry x="590" y="200" width="50" height="50" as="geometry" />
        </mxCell>
        <mxCell id="51p05St37-bJCxFVIGwr-14" style="edgeStyle=orthogonalEdgeStyle;rounded=0;orthogonalLoop=1;jettySize=auto;html=1;exitX=0.5;exitY=1;exitDx=0;exitDy=0;exitPerimeter=0;entryX=0.5;entryY=0;entryDx=0;entryDy=0;endArrow=open;endFill=0;fontColor=default;fillColor=#d5e8d4;strokeColor=default;" parent="1" source="51p05St37-bJCxFVIGwr-25" target="51p05St37-bJCxFVIGwr-16" edge="1">
          <mxGeometry relative="1" as="geometry">
            <mxPoint x="615" y="380" as="sourcePoint" />
            <mxPoint x="615" y="450" as="targetPoint" />
          </mxGeometry>
        </mxCell>
        <mxCell id="51p05St37-bJCxFVIGwr-16" value="" style="rounded=0;whiteSpace=wrap;html=1;fillColor=#d5e8d4;strokeColor=#82b366;" parent="1" vertex="1">
          <mxGeometry x="520" y="352" width="190" height="10" as="geometry" />
        </mxCell>
        <mxCell id="51p05St37-bJCxFVIGwr-18" style="edgeStyle=orthogonalEdgeStyle;rounded=0;orthogonalLoop=1;jettySize=auto;html=1;exitX=0.75;exitY=1;exitDx=0;exitDy=0;entryX=0.5;entryY=0;entryDx=0;entryDy=0;entryPerimeter=0;endArrow=open;endFill=0;fontColor=#00CC00;fillColor=#d5e8d4;strokeColor=#00CC00;" parent="1" target="51p05St37-bJCxFVIGwr-20" edge="1">
          <mxGeometry relative="1" as="geometry">
            <mxPoint x="677.2499999999998" y="362" as="sourcePoint" />
            <mxPoint x="656" y="440" as="targetPoint" />
          </mxGeometry>
        </mxCell>
        <mxCell id="51p05St37-bJCxFVIGwr-20" value="Scanner code&lt;br&gt;du chariot" style="strokeWidth=2;html=1;shape=mxgraph.flowchart.terminator;whiteSpace=wrap;fillColor=#d5e8d4;strokeColor=#82b366;fontColor=#00CC00;" parent="1" vertex="1">
          <mxGeometry x="628" y="390" width="100" height="60" as="geometry" />
        </mxCell>
        <mxCell id="51p05St37-bJCxFVIGwr-25" value="Enregistrer une&lt;br&gt;vente au stand" style="strokeWidth=2;html=1;shape=mxgraph.flowchart.terminator;whiteSpace=wrap;" parent="1" vertex="1">
          <mxGeometry x="565" y="270" width="100" height="60" as="geometry" />
        </mxCell>
        <mxCell id="51p05St37-bJCxFVIGwr-26" style="edgeStyle=orthogonalEdgeStyle;rounded=0;orthogonalLoop=1;jettySize=auto;html=1;exitX=0.5;exitY=1;exitDx=0;exitDy=0;exitPerimeter=0;entryX=0.5;entryY=0;entryDx=0;entryDy=0;entryPerimeter=0;endArrow=open;endFill=0;" parent="1" source="51p05St37-bJCxFVIGwr-12" target="51p05St37-bJCxFVIGwr-25" edge="1">
          <mxGeometry relative="1" as="geometry">
            <mxPoint x="625" y="390" as="sourcePoint" />
            <mxPoint x="615" y="310" as="targetPoint" />
          </mxGeometry>
        </mxCell>
        <mxCell id="51p05St37-bJCxFVIGwr-27" value="Scanner carte&lt;br&gt;individuelle" style="strokeWidth=2;html=1;shape=mxgraph.flowchart.terminator;whiteSpace=wrap;fillColor=#d5e8d4;strokeColor=#82b366;fontColor=#00CC00;" parent="1" vertex="1">
          <mxGeometry x="504.75" y="390" width="100" height="60" as="geometry" />
        </mxCell>
        <mxCell id="51p05St37-bJCxFVIGwr-29" style="edgeStyle=orthogonalEdgeStyle;rounded=0;orthogonalLoop=1;jettySize=auto;html=1;exitX=0.5;exitY=1;exitDx=0;exitDy=0;entryX=0.5;entryY=0;entryDx=0;entryDy=0;entryPerimeter=0;endArrow=open;endFill=0;fontColor=#00CC00;fillColor=#d5e8d4;strokeColor=#00CC00;" parent="1" target="51p05St37-bJCxFVIGwr-27" edge="1">
          <mxGeometry relative="1" as="geometry">
            <mxPoint x="554.75" y="362" as="sourcePoint" />
            <mxPoint x="678" y="470" as="targetPoint" />
          </mxGeometry>
        </mxCell>
        <mxCell id="51p05St37-bJCxFVIGwr-30" style="edgeStyle=orthogonalEdgeStyle;rounded=0;orthogonalLoop=1;jettySize=auto;html=1;exitX=0.5;exitY=1;exitDx=0;exitDy=0;entryX=0.5;entryY=0;entryDx=0;entryDy=0;entryPerimeter=0;exitPerimeter=0;endArrow=open;endFill=0;" parent="1" source="51p05St37-bJCxFVIGwr-37" target="51p05St37-bJCxFVIGwr-31" edge="1">
          <mxGeometry relative="1" as="geometry">
            <mxPoint x="695.0000000000001" y="522" as="sourcePoint" />
            <mxPoint x="915.25" y="710" as="targetPoint" />
          </mxGeometry>
        </mxCell>
        <mxCell id="51p05St37-bJCxFVIGwr-31" value="Scanner article" style="strokeWidth=2;html=1;shape=mxgraph.flowchart.terminator;whiteSpace=wrap;" parent="1" vertex="1">
          <mxGeometry x="565" y="587" width="100" height="60" as="geometry" />
        </mxCell>
        <mxCell id="51p05St37-bJCxFVIGwr-32" value="" style="rounded=0;whiteSpace=wrap;html=1;fillColor=#d5e8d4;strokeColor=#82b366;" parent="1" vertex="1">
          <mxGeometry x="520" y="480" width="190" height="10" as="geometry" />
        </mxCell>
        <mxCell id="51p05St37-bJCxFVIGwr-33" style="edgeStyle=orthogonalEdgeStyle;rounded=0;orthogonalLoop=1;jettySize=auto;html=1;exitX=0.5;exitY=1;exitDx=0;exitDy=0;entryX=0.83;entryY=-0.007;entryDx=0;entryDy=0;entryPerimeter=0;exitPerimeter=0;endArrow=open;endFill=0;fontColor=#00CC00;fillColor=#d5e8d4;strokeColor=#00CC00;" parent="1" source="51p05St37-bJCxFVIGwr-20" target="51p05St37-bJCxFVIGwr-32" edge="1">
          <mxGeometry relative="1" as="geometry">
            <mxPoint x="687.2499999999998" y="372" as="sourcePoint" />
            <mxPoint x="688" y="420" as="targetPoint" />
          </mxGeometry>
        </mxCell>
        <mxCell id="51p05St37-bJCxFVIGwr-34" style="edgeStyle=orthogonalEdgeStyle;rounded=0;orthogonalLoop=1;jettySize=auto;html=1;exitX=0.5;exitY=1;exitDx=0;exitDy=0;entryX=0.182;entryY=0.04;entryDx=0;entryDy=0;entryPerimeter=0;exitPerimeter=0;endArrow=open;endFill=0;fontColor=#00CC00;fillColor=#d5e8d4;strokeColor=#00CC00;" parent="1" source="51p05St37-bJCxFVIGwr-27" target="51p05St37-bJCxFVIGwr-32" edge="1">
          <mxGeometry relative="1" as="geometry">
            <mxPoint x="564.75" y="372" as="sourcePoint" />
            <mxPoint x="565" y="420" as="targetPoint" />
          </mxGeometry>
        </mxCell>
        <mxCell id="51p05St37-bJCxFVIGwr-35" style="edgeStyle=orthogonalEdgeStyle;rounded=0;orthogonalLoop=1;jettySize=auto;html=1;exitX=0.5;exitY=1;exitDx=0;exitDy=0;entryX=0.5;entryY=0;entryDx=0;entryDy=0;entryPerimeter=0;endArrow=open;endFill=0;" parent="1" source="51p05St37-bJCxFVIGwr-32" target="51p05St37-bJCxFVIGwr-37" edge="1">
          <mxGeometry relative="1" as="geometry">
            <mxPoint x="625" y="340" as="sourcePoint" />
            <mxPoint x="615" y="610" as="targetPoint" />
          </mxGeometry>
        </mxCell>
        <mxCell id="51p05St37-bJCxFVIGwr-37" value="" style="strokeWidth=2;html=1;shape=mxgraph.flowchart.decision;whiteSpace=wrap;" parent="1" vertex="1">
          <mxGeometry x="590" y="522" width="50" height="50" as="geometry" />
        </mxCell>
        <mxCell id="51p05St37-bJCxFVIGwr-39" style="edgeStyle=orthogonalEdgeStyle;rounded=0;orthogonalLoop=1;jettySize=auto;html=1;exitX=1;exitY=0.5;exitDx=0;exitDy=0;exitPerimeter=0;entryX=0;entryY=0.5;entryDx=0;entryDy=0;entryPerimeter=0;endArrow=open;endFill=0;" parent="1" source="51p05St37-bJCxFVIGwr-37" target="51p05St37-bJCxFVIGwr-12" edge="1">
          <mxGeometry relative="1" as="geometry">
            <mxPoint x="625" y="685" as="sourcePoint" />
            <mxPoint x="460" y="400" as="targetPoint" />
            <Array as="points">
              <mxPoint x="690" y="547" />
              <mxPoint x="690" y="690" />
              <mxPoint x="460" y="690" />
              <mxPoint x="460" y="260" />
              <mxPoint x="590" y="260" />
            </Array>
          </mxGeometry>
        </mxCell>
        <mxCell id="51p05St37-bJCxFVIGwr-40" style="edgeStyle=orthogonalEdgeStyle;rounded=0;orthogonalLoop=1;jettySize=auto;html=1;entryX=0;entryY=0.5;entryDx=0;entryDy=0;entryPerimeter=0;exitX=0.5;exitY=1;exitDx=0;exitDy=0;exitPerimeter=0;endArrow=open;endFill=0;" parent="1" source="51p05St37-bJCxFVIGwr-31" target="51p05St37-bJCxFVIGwr-37" edge="1">
          <mxGeometry relative="1" as="geometry">
            <mxPoint x="660" y="607" as="sourcePoint" />
            <mxPoint x="575" y="237" as="targetPoint" />
            <Array as="points">
              <mxPoint x="615" y="667" />
              <mxPoint x="530" y="667" />
              <mxPoint x="530" y="547" />
            </Array>
          </mxGeometry>
        </mxCell>
        <mxCell id="51p05St37-bJCxFVIGwr-41" value="[tous les articles&lt;br&gt;sont scannÃ©es]" style="text;html=1;align=center;verticalAlign=middle;resizable=0;points=[];autosize=1;strokeColor=none;fillColor=none;" parent="1" vertex="1">
          <mxGeometry x="628" y="510" width="110" height="40" as="geometry" />
        </mxCell>
        <mxCell id="51p05St37-bJCxFVIGwr-42" style="edgeStyle=orthogonalEdgeStyle;rounded=0;orthogonalLoop=1;jettySize=auto;html=1;exitX=1;exitY=0.5;exitDx=0;exitDy=0;exitPerimeter=0;entryX=0.5;entryY=0;entryDx=0;entryDy=0;entryPerimeter=0;endArrow=open;endFill=0;" parent="1" source="51p05St37-bJCxFVIGwr-12" target="51p05St37-bJCxFVIGwr-45" edge="1">
          <mxGeometry relative="1" as="geometry">
            <mxPoint x="650" y="660" as="sourcePoint" />
            <mxPoint x="620" y="1050" as="targetPoint" />
            <Array as="points">
              <mxPoint x="770" y="225" />
              <mxPoint x="770" y="730" />
              <mxPoint x="620" y="730" />
            </Array>
          </mxGeometry>
        </mxCell>
        <mxCell id="51p05St37-bJCxFVIGwr-45" value="ClÃ´turer vente" style="strokeWidth=2;html=1;shape=mxgraph.flowchart.terminator;whiteSpace=wrap;" parent="1" vertex="1">
          <mxGeometry x="570" y="760" width="100" height="60" as="geometry" />
        </mxCell>
        <mxCell id="51p05St37-bJCxFVIGwr-50" style="edgeStyle=orthogonalEdgeStyle;rounded=0;orthogonalLoop=1;jettySize=auto;html=1;endArrow=open;endFill=0;" parent="1" source="51p05St37-bJCxFVIGwr-47" target="51p05St37-bJCxFVIGwr-49" edge="1">
          <mxGeometry relative="1" as="geometry" />
        </mxCell>
        <mxCell id="51p05St37-bJCxFVIGwr-47" value="" style="strokeWidth=2;html=1;shape=mxgraph.flowchart.decision;whiteSpace=wrap;" parent="1" vertex="1">
          <mxGeometry x="595" y="940" width="50" height="50" as="geometry" />
        </mxCell>
        <mxCell id="51p05St37-bJCxFVIGwr-52" style="edgeStyle=orthogonalEdgeStyle;rounded=0;orthogonalLoop=1;jettySize=auto;html=1;endArrow=open;endFill=0;" parent="1" source="51p05St37-bJCxFVIGwr-49" target="51p05St37-bJCxFVIGwr-51" edge="1">
          <mxGeometry relative="1" as="geometry" />
        </mxCell>
        <mxCell id="51p05St37-bJCxFVIGwr-49" value="suspendre la vente" style="strokeWidth=2;html=1;shape=mxgraph.flowchart.terminator;whiteSpace=wrap;" parent="1" vertex="1">
          <mxGeometry x="570" y="1020" width="100" height="60" as="geometry" />
        </mxCell>
        <mxCell id="51p05St37-bJCxFVIGwr-51" value="enregistrer un avertissement" style="strokeWidth=2;html=1;shape=mxgraph.flowchart.terminator;whiteSpace=wrap;" parent="1" vertex="1">
          <mxGeometry x="570" y="1112" width="100" height="60" as="geometry" />
        </mxCell>
        <mxCell id="51p05St37-bJCxFVIGwr-54" value="" style="strokeWidth=2;html=1;shape=mxgraph.flowchart.decision;whiteSpace=wrap;" parent="1" vertex="1">
          <mxGeometry x="595" y="1210" width="50" height="50" as="geometry" />
        </mxCell>
        <mxCell id="51p05St37-bJCxFVIGwr-55" style="edgeStyle=orthogonalEdgeStyle;rounded=0;orthogonalLoop=1;jettySize=auto;html=1;exitX=0.5;exitY=1;exitDx=0;exitDy=0;exitPerimeter=0;entryX=0.5;entryY=0;entryDx=0;entryDy=0;entryPerimeter=0;endArrow=open;endFill=0;" parent="1" source="51p05St37-bJCxFVIGwr-51" target="51p05St37-bJCxFVIGwr-54" edge="1">
          <mxGeometry relative="1" as="geometry" />
        </mxCell>
        <mxCell id="51p05St37-bJCxFVIGwr-56" style="edgeStyle=orthogonalEdgeStyle;rounded=0;orthogonalLoop=1;jettySize=auto;html=1;startArrow=none;startFill=0;endArrow=open;endFill=0;exitX=0;exitY=0.5;exitDx=0;exitDy=0;exitPerimeter=0;entryX=0;entryY=0.5;entryDx=0;entryDy=0;entryPerimeter=0;" parent="1" source="51p05St37-bJCxFVIGwr-47" target="51p05St37-bJCxFVIGwr-54" edge="1">
          <mxGeometry relative="1" as="geometry">
            <Array as="points">
              <mxPoint x="530" y="965" />
              <mxPoint x="530" y="1235" />
            </Array>
            <mxPoint x="570" y="980" as="sourcePoint" />
          </mxGeometry>
        </mxCell>
        <mxCell id="51p05St37-bJCxFVIGwr-60" value="" style="edgeStyle=orthogonalEdgeStyle;rounded=0;orthogonalLoop=1;jettySize=auto;html=1;endArrow=open;endFill=0;strokeColor=#00CC00;" parent="1" source="51p05St37-bJCxFVIGwr-57" target="51p05St37-bJCxFVIGwr-59" edge="1">
          <mxGeometry relative="1" as="geometry" />
        </mxCell>
        <mxCell id="51p05St37-bJCxFVIGwr-57" value="payer ses achats" style="strokeWidth=2;html=1;shape=mxgraph.flowchart.terminator;whiteSpace=wrap;" parent="1" vertex="1">
          <mxGeometry x="570" y="1290" width="100" height="60" as="geometry" />
        </mxCell>
        <mxCell id="51p05St37-bJCxFVIGwr-58" style="edgeStyle=orthogonalEdgeStyle;rounded=0;orthogonalLoop=1;jettySize=auto;html=1;exitX=0.5;exitY=1;exitDx=0;exitDy=0;exitPerimeter=0;entryX=0.5;entryY=0;entryDx=0;entryDy=0;entryPerimeter=0;endArrow=open;endFill=0;" parent="1" source="51p05St37-bJCxFVIGwr-54" target="51p05St37-bJCxFVIGwr-57" edge="1">
          <mxGeometry relative="1" as="geometry" />
        </mxCell>
        <mxCell id="51p05St37-bJCxFVIGwr-59" value="" style="strokeWidth=2;html=1;shape=mxgraph.flowchart.decision;whiteSpace=wrap;fillColor=#d5e8d4;strokeColor=#82b366;" parent="1" vertex="1">
          <mxGeometry x="595" y="1370" width="50" height="50" as="geometry" />
        </mxCell>
        <mxCell id="51p05St37-bJCxFVIGwr-61" value="[probleme]" style="text;html=1;align=center;verticalAlign=middle;resizable=0;points=[];autosize=1;strokeColor=none;fillColor=none;" parent="1" vertex="1">
          <mxGeometry x="628" y="970" width="80" height="30" as="geometry" />
        </mxCell>
        <mxCell id="51p05St37-bJCxFVIGwr-65" value="" style="strokeWidth=2;html=1;shape=mxgraph.flowchart.decision;whiteSpace=wrap;fillColor=#d5e8d4;strokeColor=#82b366;" parent="1" vertex="1">
          <mxGeometry x="595" y="1490" width="50" height="50" as="geometry" />
        </mxCell>
        <mxCell id="51p05St37-bJCxFVIGwr-67" value="&lt;font color=&quot;#00cc00&quot;&gt;[erreur de paiement]&lt;/font&gt;" style="text;html=1;align=center;verticalAlign=middle;resizable=0;points=[];autosize=1;strokeColor=none;fillColor=none;" parent="1" vertex="1">
          <mxGeometry x="660" y="1360" width="130" height="30" as="geometry" />
        </mxCell>
        <mxCell id="51p05St37-bJCxFVIGwr-68" style="edgeStyle=orthogonalEdgeStyle;rounded=0;orthogonalLoop=1;jettySize=auto;html=1;exitX=1;exitY=0.5;exitDx=0;exitDy=0;exitPerimeter=0;entryX=0.5;entryY=0;entryDx=0;entryDy=0;entryPerimeter=0;endArrow=open;endFill=0;strokeColor=#00CC00;" parent="1" source="51p05St37-bJCxFVIGwr-59" target="iygcr6Xt5pBjAivM9mm0-11" edge="1">
          <mxGeometry relative="1" as="geometry">
            <Array as="points">
              <mxPoint x="710" y="1395" />
            </Array>
          </mxGeometry>
        </mxCell>
        <mxCell id="iygcr6Xt5pBjAivM9mm0-1" value="&lt;font color=&quot;#00cc00&quot;&gt;[ client a fini&lt;br&gt;ses achats ]&lt;/font&gt;" style="text;html=1;align=center;verticalAlign=middle;resizable=0;points=[];autosize=1;strokeColor=none;fillColor=none;" parent="1" vertex="1">
          <mxGeometry x="780" y="230" width="90" height="40" as="geometry" />
        </mxCell>
        <mxCell id="iygcr6Xt5pBjAivM9mm0-6" value="" style="endArrow=open;html=1;rounded=0;exitX=0.11;exitY=0.89;exitDx=0;exitDy=0;exitPerimeter=0;entryX=0;entryY=0.5;entryDx=0;entryDy=0;entryPerimeter=0;endFill=0;strokeColor=#00CC00;" parent="1" source="51p05St37-bJCxFVIGwr-45" target="51p05St37-bJCxFVIGwr-47" edge="1">
          <mxGeometry width="50" height="50" relative="1" as="geometry">
            <mxPoint x="581" y="843.4000000000001" as="sourcePoint" />
            <mxPoint x="690" y="880" as="targetPoint" />
            <Array as="points">
              <mxPoint x="540" y="890" />
            </Array>
          </mxGeometry>
        </mxCell>
        <mxCell id="iygcr6Xt5pBjAivM9mm0-8" value="" style="ellipse;html=1;shape=startState;fillColor=#000000;strokeColor=none;" parent="1" vertex="1">
          <mxGeometry x="605" y="1580" width="30" height="30" as="geometry" />
        </mxCell>
        <mxCell id="iygcr6Xt5pBjAivM9mm0-9" value="" style="ellipse;whiteSpace=wrap;html=1;aspect=fixed;fillColor=none;" parent="1" vertex="1">
          <mxGeometry x="605" y="1580" width="30" height="30" as="geometry" />
        </mxCell>
        <mxCell id="iygcr6Xt5pBjAivM9mm0-10" style="edgeStyle=orthogonalEdgeStyle;rounded=0;orthogonalLoop=1;jettySize=auto;html=1;entryX=0.5;entryY=0;entryDx=0;entryDy=0;endArrow=open;endFill=0;exitX=0.5;exitY=1;exitDx=0;exitDy=0;exitPerimeter=0;strokeColor=#00CC00;" parent="1" source="51p05St37-bJCxFVIGwr-65" target="iygcr6Xt5pBjAivM9mm0-9" edge="1">
          <mxGeometry relative="1" as="geometry">
            <mxPoint x="650" y="1570" as="sourcePoint" />
            <mxPoint x="660" y="1560" as="targetPoint" />
          </mxGeometry>
        </mxCell>
        <mxCell id="iygcr6Xt5pBjAivM9mm0-11" value="&lt;font color=&quot;#00cc00&quot;&gt;annuler la vente&lt;/font&gt;" style="strokeWidth=2;html=1;shape=mxgraph.flowchart.terminator;whiteSpace=wrap;fillColor=#d5e8d4;strokeColor=#82b366;" parent="1" vertex="1">
          <mxGeometry x="660" y="1430" width="100" height="60" as="geometry" />
        </mxCell>
        <mxCell id="iygcr6Xt5pBjAivM9mm0-12" value="" style="endArrow=open;html=1;rounded=0;endFill=0;entryX=0.5;entryY=0;entryDx=0;entryDy=0;entryPerimeter=0;exitX=0.5;exitY=1;exitDx=0;exitDy=0;exitPerimeter=0;strokeColor=#00CC00;" parent="1" source="51p05St37-bJCxFVIGwr-59" target="51p05St37-bJCxFVIGwr-65" edge="1">
          <mxGeometry width="50" height="50" relative="1" as="geometry">
            <mxPoint x="300" y="1460" as="sourcePoint" />
            <mxPoint x="350" y="1410" as="targetPoint" />
          </mxGeometry>
        </mxCell>
        <mxCell id="iygcr6Xt5pBjAivM9mm0-14" value="" style="endArrow=open;html=1;rounded=0;endFill=0;entryX=1;entryY=0.5;entryDx=0;entryDy=0;entryPerimeter=0;exitX=0.5;exitY=1;exitDx=0;exitDy=0;exitPerimeter=0;strokeColor=#00CC00;" parent="1" source="iygcr6Xt5pBjAivM9mm0-11" target="51p05St37-bJCxFVIGwr-65" edge="1">
          <mxGeometry width="50" height="50" relative="1" as="geometry">
            <mxPoint x="760" y="1530" as="sourcePoint" />
            <mxPoint x="630" y="1500" as="targetPoint" />
            <Array as="points">
              <mxPoint x="710" y="1515" />
            </Array>
          </mxGeometry>
        </mxCell>
        <mxCell id="LQ88C-DZTKu-YPL00Vrc-1" value="&lt;font color=&quot;#ff0000&quot;&gt;&lt;strike&gt;[ client ne souhaite pas plus d&#39;articles et&lt;br&gt;a au moins 1 article ]&lt;/strike&gt;&lt;/font&gt;" style="text;html=1;align=center;verticalAlign=middle;resizable=0;points=[];autosize=1;strokeColor=none;fillColor=none;" parent="1" vertex="1">
          <mxGeometry x="780" y="280" width="240" height="40" as="geometry" />
        </mxCell>
        <mxCell id="tRN0QhCMm_zdmjrMZJnX-1" value="Scanner code&lt;br&gt;du chariot" style="strokeWidth=2;html=1;shape=mxgraph.flowchart.terminator;whiteSpace=wrap;fillColor=#f8cecc;strokeColor=#b85450;fontColor=#FF0000;" vertex="1" parent="1">
          <mxGeometry x="825" y="392" width="100" height="60" as="geometry" />
        </mxCell>
        <mxCell id="tRN0QhCMm_zdmjrMZJnX-2" value="&lt;font color=&quot;#ff0000&quot;&gt;Scanner carte&lt;br&gt;individuelle&lt;/font&gt;" style="strokeWidth=2;html=1;shape=mxgraph.flowchart.terminator;whiteSpace=wrap;fillColor=#f8cecc;strokeColor=#b85450;" vertex="1" parent="1">
          <mxGeometry x="825" y="490" width="100" height="60" as="geometry" />
        </mxCell>
        <mxCell id="tRN0QhCMm_zdmjrMZJnX-4" value="" style="endArrow=open;html=1;rounded=0;entryX=0.5;entryY=0;entryDx=0;entryDy=0;entryPerimeter=0;strokeColor=#FF0000;endFill=0;" edge="1" parent="1" target="tRN0QhCMm_zdmjrMZJnX-1">
          <mxGeometry width="50" height="50" relative="1" as="geometry">
            <mxPoint x="875" y="340" as="sourcePoint" />
            <mxPoint x="899" y="290" as="targetPoint" />
          </mxGeometry>
        </mxCell>
        <mxCell id="tRN0QhCMm_zdmjrMZJnX-7" value="&lt;font color=&quot;#ff0000&quot; style=&quot;font-size: 16px;&quot;&gt;x&lt;/font&gt;" style="edgeLabel;html=1;align=center;verticalAlign=middle;resizable=0;points=[];" vertex="1" connectable="0" parent="tRN0QhCMm_zdmjrMZJnX-4">
          <mxGeometry x="-0.0348" relative="1" as="geometry">
            <mxPoint as="offset" />
          </mxGeometry>
        </mxCell>
        <mxCell id="tRN0QhCMm_zdmjrMZJnX-8" value="" style="endArrow=open;html=1;rounded=0;entryX=0.5;entryY=0;entryDx=0;entryDy=0;entryPerimeter=0;strokeColor=#FF0000;endFill=0;exitX=0.5;exitY=1;exitDx=0;exitDy=0;exitPerimeter=0;fontColor=#FF0000;" edge="1" parent="1" source="tRN0QhCMm_zdmjrMZJnX-1" target="tRN0QhCMm_zdmjrMZJnX-2">
          <mxGeometry width="50" height="50" relative="1" as="geometry">
            <mxPoint x="885" y="350" as="sourcePoint" />
            <mxPoint x="885" y="402" as="targetPoint" />
          </mxGeometry>
        </mxCell>
        <mxCell id="tRN0QhCMm_zdmjrMZJnX-9" value="&lt;font style=&quot;font-size: 16px;&quot;&gt;x&lt;/font&gt;" style="edgeLabel;html=1;align=center;verticalAlign=middle;resizable=0;points=[];fontColor=#FF0000;" vertex="1" connectable="0" parent="tRN0QhCMm_zdmjrMZJnX-8">
          <mxGeometry x="-0.0348" relative="1" as="geometry">
            <mxPoint as="offset" />
          </mxGeometry>
        </mxCell>
        <mxCell id="tRN0QhCMm_zdmjrMZJnX-12" value="&lt;font color=&quot;#ff0000&quot; style=&quot;font-size: 20px;&quot;&gt;1 *&lt;/font&gt;" style="text;html=1;align=center;verticalAlign=middle;resizable=0;points=[];autosize=1;strokeColor=none;fillColor=none;" vertex="1" parent="1">
          <mxGeometry x="925" y="370" width="50" height="40" as="geometry" />
        </mxCell>
        <mxCell id="tRN0QhCMm_zdmjrMZJnX-13" value="&lt;font color=&quot;#ff0000&quot; style=&quot;font-size: 20px;&quot;&gt;1 *&lt;/font&gt;" style="text;html=1;align=center;verticalAlign=middle;resizable=0;points=[];autosize=1;strokeColor=none;fillColor=none;glass=1;" vertex="1" parent="1">
          <mxGeometry x="595" y="362" width="50" height="40" as="geometry" />
        </mxCell>
        <mxCell id="tRN0QhCMm_zdmjrMZJnX-15" value="" style="endArrow=open;html=1;rounded=0;endFill=0;exitX=0;exitY=0.5;exitDx=0;exitDy=0;exitPerimeter=0;entryX=0.5;entryY=0;entryDx=0;entryDy=0;entryPerimeter=0;fillColor=#f8cecc;strokeColor=#FF0000;" edge="1" parent="1" source="51p05St37-bJCxFVIGwr-12" target="tRN0QhCMm_zdmjrMZJnX-19">
          <mxGeometry width="50" height="50" relative="1" as="geometry">
            <mxPoint x="670" y="210" as="sourcePoint" />
            <mxPoint x="390" y="225" as="targetPoint" />
            <Array as="points">
              <mxPoint x="340" y="225" />
            </Array>
          </mxGeometry>
        </mxCell>
        <mxCell id="tRN0QhCMm_zdmjrMZJnX-20" value="&lt;font color=&quot;#ff0000&quot; style=&quot;font-size: 16px;&quot;&gt;X&lt;/font&gt;" style="edgeLabel;html=1;align=center;verticalAlign=middle;resizable=0;points=[];" vertex="1" connectable="0" parent="tRN0QhCMm_zdmjrMZJnX-15">
          <mxGeometry x="0.0475" y="1" relative="1" as="geometry">
            <mxPoint as="offset" />
          </mxGeometry>
        </mxCell>
        <mxCell id="tRN0QhCMm_zdmjrMZJnX-16" value="" style="endArrow=open;html=1;rounded=0;endFill=0;exitX=0.5;exitY=1;exitDx=0;exitDy=0;exitPerimeter=0;entryX=0.5;entryY=0;entryDx=0;entryDy=0;entryPerimeter=0;" edge="1" parent="1" source="51p05St37-bJCxFVIGwr-9" target="51p05St37-bJCxFVIGwr-12">
          <mxGeometry width="50" height="50" relative="1" as="geometry">
            <mxPoint x="680" y="220" as="sourcePoint" />
            <mxPoint x="730" y="170" as="targetPoint" />
          </mxGeometry>
        </mxCell>
        <mxCell id="tRN0QhCMm_zdmjrMZJnX-17" value="" style="endArrow=open;html=1;rounded=0;endFill=0;entryX=0.5;entryY=0;entryDx=0;entryDy=0;entryPerimeter=0;" edge="1" parent="1" source="51p05St37-bJCxFVIGwr-10" target="51p05St37-bJCxFVIGwr-9">
          <mxGeometry width="50" height="50" relative="1" as="geometry">
            <mxPoint x="680" y="220" as="sourcePoint" />
            <mxPoint x="730" y="170" as="targetPoint" />
          </mxGeometry>
        </mxCell>
        <mxCell id="tRN0QhCMm_zdmjrMZJnX-19" value="Enregistrer vente&lt;br&gt;abandonnÃ©e" style="strokeWidth=2;html=1;shape=mxgraph.flowchart.terminator;whiteSpace=wrap;fillColor=#f8cecc;strokeColor=#b85450;fontColor=#FF0000;" vertex="1" parent="1">
          <mxGeometry x="290" y="270" width="100" height="60" as="geometry" />
        </mxCell>
        <mxCell id="tRN0QhCMm_zdmjrMZJnX-21" value="" style="ellipse;html=1;shape=startState;fillColor=#f8cecc;strokeColor=#b85450;" vertex="1" parent="1">
          <mxGeometry x="325" y="375" width="30" height="30" as="geometry" />
        </mxCell>
        <mxCell id="tRN0QhCMm_zdmjrMZJnX-22" value="" style="ellipse;whiteSpace=wrap;html=1;aspect=fixed;fillColor=none;strokeColor=#FF0000;" vertex="1" parent="1">
          <mxGeometry x="325" y="375" width="30" height="30" as="geometry" />
        </mxCell>
        <mxCell id="tRN0QhCMm_zdmjrMZJnX-23" style="edgeStyle=orthogonalEdgeStyle;rounded=0;orthogonalLoop=1;jettySize=auto;html=1;entryX=0.5;entryY=0;entryDx=0;entryDy=0;endArrow=open;endFill=0;exitX=0.5;exitY=1;exitDx=0;exitDy=0;exitPerimeter=0;strokeColor=#FF0000;" edge="1" parent="1" target="tRN0QhCMm_zdmjrMZJnX-22" source="tRN0QhCMm_zdmjrMZJnX-19">
          <mxGeometry relative="1" as="geometry">
            <mxPoint x="340" y="362" as="sourcePoint" />
            <mxPoint x="380" y="382" as="targetPoint" />
          </mxGeometry>
        </mxCell>
        <mxCell id="tRN0QhCMm_zdmjrMZJnX-24" value="&lt;font color=&quot;#ff0000&quot; style=&quot;font-size: 16px;&quot;&gt;X&lt;/font&gt;" style="edgeLabel;html=1;align=center;verticalAlign=middle;resizable=0;points=[];" vertex="1" connectable="0" parent="tRN0QhCMm_zdmjrMZJnX-23">
          <mxGeometry x="-0.0963" y="1" relative="1" as="geometry">
            <mxPoint as="offset" />
          </mxGeometry>
        </mxCell>
        <mxCell id="tRN0QhCMm_zdmjrMZJnX-25" value="Scanner code&lt;br&gt;du chariot" style="strokeWidth=2;html=1;shape=mxgraph.flowchart.terminator;whiteSpace=wrap;fillColor=#f8cecc;strokeColor=#b85450;fontColor=#FF0000;" vertex="1" parent="1">
          <mxGeometry x="690" y="797" width="100" height="60" as="geometry" />
        </mxCell>
        <mxCell id="tRN0QhCMm_zdmjrMZJnX-26" value="VÃ©rifier le&lt;br&gt;contenu du&lt;br&gt;chariot" style="strokeWidth=2;html=1;shape=mxgraph.flowchart.terminator;whiteSpace=wrap;fillColor=#f8cecc;strokeColor=#b85450;fontColor=#FF0000;" vertex="1" parent="1">
          <mxGeometry x="690" y="890" width="100" height="60" as="geometry" />
        </mxCell>
        <mxCell id="tRN0QhCMm_zdmjrMZJnX-28" value="" style="endArrow=open;html=1;rounded=0;endFill=0;entryX=0.5;entryY=0;entryDx=0;entryDy=0;entryPerimeter=0;exitX=0.5;exitY=1;exitDx=0;exitDy=0;exitPerimeter=0;fillColor=#f8cecc;strokeColor=#FF0000;fontColor=#FF0000;" edge="1" parent="1" source="tRN0QhCMm_zdmjrMZJnX-25" target="tRN0QhCMm_zdmjrMZJnX-26">
          <mxGeometry width="50" height="50" relative="1" as="geometry">
            <mxPoint x="755" y="890" as="sourcePoint" />
            <mxPoint x="755" y="910" as="targetPoint" />
          </mxGeometry>
        </mxCell>
        <mxCell id="tRN0QhCMm_zdmjrMZJnX-33" value="&lt;font color=&quot;#ff0000&quot; style=&quot;font-size: 16px;&quot;&gt;X&lt;/font&gt;" style="edgeLabel;html=1;align=center;verticalAlign=middle;resizable=0;points=[];" vertex="1" connectable="0" parent="tRN0QhCMm_zdmjrMZJnX-28">
          <mxGeometry x="-0.0282" y="1" relative="1" as="geometry">
            <mxPoint as="offset" />
          </mxGeometry>
        </mxCell>
        <mxCell id="tRN0QhCMm_zdmjrMZJnX-30" value="" style="endArrow=open;html=1;rounded=0;endFill=0;exitX=0.11;exitY=0.89;exitDx=0;exitDy=0;exitPerimeter=0;strokeColor=#FF0000;entryX=1;entryY=0.5;entryDx=0;entryDy=0;entryPerimeter=0;" edge="1" parent="1" source="tRN0QhCMm_zdmjrMZJnX-26" target="51p05St37-bJCxFVIGwr-47">
          <mxGeometry width="50" height="50" relative="1" as="geometry">
            <mxPoint x="900" y="960" as="sourcePoint" />
            <mxPoint x="880" y="980" as="targetPoint" />
          </mxGeometry>
        </mxCell>
        <mxCell id="tRN0QhCMm_zdmjrMZJnX-35" value="&lt;font color=&quot;#ff0000&quot; style=&quot;font-size: 16px;&quot;&gt;x&lt;/font&gt;" style="edgeLabel;html=1;align=center;verticalAlign=middle;resizable=0;points=[];" vertex="1" connectable="0" parent="tRN0QhCMm_zdmjrMZJnX-30">
          <mxGeometry x="-0.0843" y="1" relative="1" as="geometry">
            <mxPoint as="offset" />
          </mxGeometry>
        </mxCell>
        <mxCell id="tRN0QhCMm_zdmjrMZJnX-32" value="" style="endArrow=open;html=1;rounded=0;endFill=0;entryX=0.11;entryY=0.11;entryDx=0;entryDy=0;entryPerimeter=0;strokeColor=#FF0000;exitX=1;exitY=0.5;exitDx=0;exitDy=0;exitPerimeter=0;" edge="1" parent="1" source="51p05St37-bJCxFVIGwr-45" target="tRN0QhCMm_zdmjrMZJnX-25">
          <mxGeometry width="50" height="50" relative="1" as="geometry">
            <mxPoint x="659" y="843.4000000000001" as="sourcePoint" />
            <mxPoint x="890" y="990" as="targetPoint" />
          </mxGeometry>
        </mxCell>
        <mxCell id="tRN0QhCMm_zdmjrMZJnX-34" value="&lt;font color=&quot;#ff0000&quot; style=&quot;font-size: 16px;&quot;&gt;X&lt;/font&gt;" style="edgeLabel;html=1;align=center;verticalAlign=middle;resizable=0;points=[];" vertex="1" connectable="0" parent="tRN0QhCMm_zdmjrMZJnX-32">
          <mxGeometry x="-0.085" relative="1" as="geometry">
            <mxPoint as="offset" />
          </mxGeometry>
        </mxCell>
        <mxCell id="tRN0QhCMm_zdmjrMZJnX-37" style="edgeStyle=orthogonalEdgeStyle;rounded=0;orthogonalLoop=1;jettySize=auto;html=1;exitX=0.11;exitY=0.89;exitDx=0;exitDy=0;entryX=0;entryY=0.5;entryDx=0;entryDy=0;endArrow=open;endFill=0;exitPerimeter=0;strokeColor=#FF0000;" edge="1" parent="1" source="51p05St37-bJCxFVIGwr-57" target="iygcr6Xt5pBjAivM9mm0-9">
          <mxGeometry relative="1" as="geometry">
            <mxPoint x="515" y="1380" as="sourcePoint" />
            <mxPoint x="515" y="1412" as="targetPoint" />
            <Array as="points">
              <mxPoint x="560" y="1343" />
              <mxPoint x="560" y="1595" />
            </Array>
          </mxGeometry>
        </mxCell>
        <mxCell id="tRN0QhCMm_zdmjrMZJnX-38" value="&lt;font color=&quot;#ff0000&quot; style=&quot;font-size: 16px;&quot;&gt;X&lt;/font&gt;" style="edgeLabel;html=1;align=center;verticalAlign=middle;resizable=0;points=[];" vertex="1" connectable="0" parent="tRN0QhCMm_zdmjrMZJnX-37">
          <mxGeometry x="-0.0645" y="-1" relative="1" as="geometry">
            <mxPoint as="offset" />
          </mxGeometry>
        </mxCell>
        <mxCell id="tRN0QhCMm_zdmjrMZJnX-39" value="&lt;font color=&quot;#ff0000&quot;&gt;&lt;strike&gt;[ client abandonne&lt;br&gt;&amp;nbsp;son chariot ]&lt;/strike&gt;&lt;/font&gt;" style="text;html=1;align=center;verticalAlign=middle;resizable=0;points=[];autosize=1;strokeColor=none;fillColor=none;" vertex="1" parent="1">
          <mxGeometry x="410" y="173" width="120" height="40" as="geometry" />
        </mxCell>
      </root>
    </mxGraphModel>
  </diagram>
</mxfile>
